<?xml version="1.0" encoding="utf-8"?>
<!-- Generator: Adobe Illustrator 18.1.1, SVG Export Plug-In . SVG Version: 6.00 Build 0)  -->
<svg version="1.1" id="Layer_1" xmlns="http://www.w3.org/2000/svg" xmlns:xlink="http://www.w3.org/1999/xlink" x="0px" y="0px"
	 viewBox="0 0 324.1 216" enable-background="new 0 0 324.1 216" xml:space="preserve">
<path fill="#AF8ABF" d="M215.3,107.1c0,39.2-21.3,73.5-52.9,91.9c0,0-0.1,0-0.1,0c0,0,0,0-0.1,0c-6.6-4.6-12.8-9.1-18.4-13.5
	c0,0,0,0,0,0c-21.3-19.4-34.6-47.4-34.6-78.4c0-39.3,21.3-73.6,53.1-91.9c0,0,0,0,0,0C193.9,33.6,215.3,67.9,215.3,107.1z"/>
<path fill="#A1BFDE" stroke="#FFFFFF" stroke-width="2" stroke-miterlimit="10" d="M162.2,199.1c-15.6,9-33.7,14.2-53.1,14.2
	C50.5,213.3,3,165.8,3,107.1C3,48.5,50.5,1,109.1,1c19.3,0,37.5,5.2,53.1,14.2c-31.7,18.3-53.1,52.7-53.1,91.9
	C109.1,146.4,130.5,180.7,162.2,199.1z"/>
<path fill="#E9A3C8" stroke="#FFFFFF" stroke-width="2" stroke-miterlimit="10" d="M321.4,107.1c0,58.6-47.5,106.1-106.1,106.1
	c-19.3,0-37.5-5.2-53.1-14.2c31.7-18.4,53.1-52.7,53.1-91.9c0-39.3-21.3-73.6-53.1-91.9C177.8,6.2,196,1,215.3,1
	C273.9,1,321.4,48.5,321.4,107.1z"/>
</svg>
